<svg xmlns="http://www.w3.org/2000/svg" viewBox="0 0 24 24" width="24" height="24">
    <g fill="none" fill-rule="evenodd">
        <path stroke="#434343" d="m 13.561832,1.5197762 c -0.3592,-1.30199301 -2.23664,-1.36261501 -2.643796,0 -2.1158519,7.136984 -6.6402539,9.0764008 -6.6402539,14.1065808 0,4.453377 3.561253,8.056702 7.9621529,8.056702 4.400898,0 7.962152,-3.603325 7.962152,-8.056702 0,-5.055515 -4.51445,-6.9370248 -6.640255,-14.1065808 z M 12.239935,20.78773 c -2.7935409,0 -5.0668249,-2.273284 -5.0668249,-5.066823 0,-0.399917 0.323915,-0.723832 0.723832,-0.723832 0.399916,0 0.723831,0.323915 0.723831,0.723832 0,1.995515 1.6236469,3.61916 3.6191619,3.61916 0.399917,0 0.723831,0.323915 0.723831,0.723832 0,0.399917 -0.323914,0.723831 -0.723831,0.723831 z" />
    </g>
</svg>